<mxfile host="app.diagrams.net" modified="2020-11-20T09:20:49.137Z" agent="5.0 (Windows NT 6.1; Win64; x64) AppleWebKit/537.36 (KHTML, like Gecko) Chrome/83.0.4103.97 Safari/537.36" etag="Lo713Mw_K6MD4b0ctwWH" version="13.9.9" type="github">
  <diagram id="VU_dx4ajiQtVL9cvRUOc" name="Page-1">
    <mxGraphModel dx="1422" dy="762" grid="1" gridSize="10" guides="1" tooltips="1" connect="1" arrows="1" fold="1" page="1" pageScale="1" pageWidth="827" pageHeight="1169" math="0" shadow="0">
      <root>
        <mxCell id="0" />
        <mxCell id="1" parent="0" />
        <mxCell id="-NqdzgjW_j-PJkJXu21r-1" value="航线 客服提交费用" style="ellipse;whiteSpace=wrap;html=1;" parent="1" vertex="1">
          <mxGeometry x="304" y="10" width="110" height="60" as="geometry" />
        </mxCell>
        <mxCell id="-NqdzgjW_j-PJkJXu21r-3" value="" style="endArrow=classic;html=1;" parent="1" source="-NqdzgjW_j-PJkJXu21r-1" target="-NqdzgjW_j-PJkJXu21r-4" edge="1">
          <mxGeometry width="50" height="50" relative="1" as="geometry">
            <mxPoint x="390" y="420" as="sourcePoint" />
            <mxPoint x="360" y="200" as="targetPoint" />
          </mxGeometry>
        </mxCell>
        <mxCell id="-NqdzgjW_j-PJkJXu21r-4" value="自动结算费用确认，并提交到经理审核" style="rounded=0;whiteSpace=wrap;html=1;" parent="1" vertex="1">
          <mxGeometry x="300" y="170" width="120" height="60" as="geometry" />
        </mxCell>
        <mxCell id="-NqdzgjW_j-PJkJXu21r-5" value="" style="rounded=1;whiteSpace=wrap;html=1;" parent="1" vertex="1">
          <mxGeometry x="304" y="300" width="120" height="60" as="geometry" />
        </mxCell>
      </root>
    </mxGraphModel>
  </diagram>
</mxfile>
